{"asset":{"version":"2.0","generator":"babylon.js glTF exporter for 3ds max 2017 v1.3.33"},"scene":0,"scenes":[{"nodes":[0,1],"extensions":{}}],"nodes":[{"mesh":0,"translation":[2.03594971,2.24420452,0.32567215],"rotation":[0.7071068,0.0,0.0,0.7071067],"scale":[1.0,1.0,1.0],"name":"table_basse"},{"translation":[0.0,0.0,0.0],"rotation":[0.0,0.0,0.0,1.0],"scale":[1.0,1.0,1.0],"name":"Default light"}],"meshes":[{"primitives":[{"attributes":{"POSITION":1,"NORMAL":2,"TEXCOORD_0":3},"indices":0,"mode":4,"material":0}],"name":"table_basse"}],"accessors":[{"bufferView":0,"componentType":5123,"count":5532,"type":"SCALAR","name":"accessorIndices"},{"bufferView":1,"componentType":5126,"count":5532,"max":[10.0215521,2.99958754,2.216368],"min":[-14.7775764,-17.5635281,-4.27551365],"type":"VEC3","name":"accessorPositions"},{"bufferView":1,"byteOffset":66384,"componentType":5126,"count":5532,"type":"VEC3","name":"accessorNormals"},{"bufferView":2,"componentType":5126,"count":5532,"type":"VEC2","name":"accessorUVs"}],"bufferViews":[{"buffer":0,"byteLength":11064,"name":"bufferViewScalar"},{"buffer":0,"byteOffset":11064,"byteLength":132768,"byteStride":12,"name":"bufferViewFloatVec3"},{"buffer":0,"byteOffset":143832,"byteLength":44256,"byteStride":8,"name":"bufferViewFloatVec2"}],"buffers":[{"uri":"table.bin","byteLength":188088}],"materials":[{"pbrMetallicRoughness":{"baseColorFactor":[0.612745166,0.612745166,0.612745166,1.0],"metallicFactor":0.0,"roughnessFactor":0.9},"emissiveFactor":[0.0,0.0,0.0],"alphaMode":"OPAQUE","name":"20 - Default"}]}