{"asset":{"version":"2.0","generator":"babylon.js glTF exporter for 3ds max 2017 v1.3.33"},"scene":0,"scenes":[{"nodes":[0,1,4,10],"extensions":{}}],"nodes":[{"translation":[-150.98082,50.912796,-2.506014],"rotation":[0.0,0.0,0.0,1.0],"scale":[1.0,1.0,1.0],"name":"Camera001.Target"},{"children":[2,3],"mesh":0,"translation":[-0.015007019,27.1992,-18.4652214],"rotation":[0.0,0.7071067,0.0,0.7071068],"scale":[1.0,1.0,1.0],"name":"Box004"},{"mesh":1,"translation":[-0.105140686,-13.7166929,7.463508],"rotation":[0.7071068,0.0,0.0,0.7071067],"scale":[1.0,1.0,1.0],"name":"Line008"},{"mesh":1,"translation":[-0.105140686,-13.7166929,-7.80018],"rotation":[0.7071068,0.0,0.0,0.7071067],"scale":[1.0,1.0,1.0],"name":"Line009"},{"children":[5,6,7,8,9],"translation":[15.8940125,16.8167439,-19.2880726],"rotation":[0.0,0.0,0.0,1.0],"scale":[1.0,1.0,1.0],"name":"Chaise002"},{"mesh":2,"translation":[8.35482,8.965248,0.0],"rotation":[0.0,0.0,0.0,1.0],"scale":[1.0,1.0,1.0],"name":"Box025"},{"mesh":3,"translation":[-1.58553314,-1.06871033,-0.405502319],"rotation":[0.0,0.0,0.0,1.0],"scale":[1.0,1.0,1.0],"name":"Box026"},{"mesh":4,"translation":[-1.46188736,-9.15218,5.985176],"rotation":[0.7071068,0.0,0.0,0.7071067],"scale":[1.0,1.0,1.0],"name":"Line040"},{"mesh":4,"translation":[-1.46188736,-9.15218,-7.10306549],"rotation":[0.7071068,0.0,0.0,0.7071067],"scale":[1.0,1.0,1.0],"name":"Line041"},{"mesh":5,"translation":[4.347931,-1.5935545,-0.611351],"rotation":[0.0,0.0,0.0,1.0],"scale":[1.0,1.0,1.0],"name":"Line042"},{"translation":[0.0,0.0,0.0],"rotation":[0.0,0.0,0.0,1.0],"scale":[1.0,1.0,1.0],"name":"Default light"}],"meshes":[{"primitives":[{"attributes":{"POSITION":1,"NORMAL":2,"TEXCOORD_0":3},"indices":0,"mode":4,"material":0}],"name":"Box004"},{"primitives":[{"attributes":{"POSITION":5,"NORMAL":6},"indices":4,"mode":4,"material":0}],"name":"Line008"},{"primitives":[{"attributes":{"POSITION":8,"NORMAL":9,"TEXCOORD_0":10},"indices":7,"mode":4,"material":0}],"name":"Box025"},{"primitives":[{"attributes":{"POSITION":12,"NORMAL":13,"TEXCOORD_0":14},"indices":11,"mode":4,"material":0}],"name":"Box026"},{"primitives":[{"attributes":{"POSITION":16,"NORMAL":17},"indices":15,"mode":4,"material":0}],"name":"Line040"},{"primitives":[{"attributes":{"POSITION":19,"NORMAL":20},"indices":18,"mode":4,"material":0}],"name":"Line042"}],"accessors":[{"bufferView":0,"componentType":5123,"count":1080,"type":"SCALAR","name":"accessorIndices"},{"bufferView":1,"componentType":5126,"count":1080,"max":[14.7637825,0.5905514,9.842521],"min":[-14.76378,0.0,-9.84252],"type":"VEC3","name":"accessorPositions"},{"bufferView":1,"byteOffset":12960,"componentType":5126,"count":1080,"type":"VEC3","name":"accessorNormals"},{"bufferView":2,"componentType":5126,"count":1080,"type":"VEC2","name":"accessorUVs"},{"bufferView":0,"byteOffset":2160,"componentType":5123,"count":3012,"type":"SCALAR","name":"accessorIndices"},{"bufferView":1,"byteOffset":25920,"componentType":5126,"count":3012,"max":[13.6969948,0.393701077,13.5835838],"min":[-13.3904171,-0.393701077,-13.95356],"type":"VEC3","name":"accessorPositions"},{"bufferView":1,"byteOffset":62064,"componentType":5126,"count":3012,"type":"VEC3","name":"accessorNormals"},{"bufferView":0,"byteOffset":8184,"componentType":5123,"count":672,"type":"SCALAR","name":"accessorIndices"},{"bufferView":1,"byteOffset":98208,"componentType":5126,"count":672,"max":[0.4634781,7.87401772,8.85253048],"min":[-0.196849823,0.0,-8.85253],"type":"VEC3","name":"accessorPositions"},{"bufferView":1,"byteOffset":106272,"componentType":5126,"count":672,"type":"VEC3","name":"accessorNormals"},{"bufferView":2,"byteOffset":8640,"componentType":5126,"count":672,"type":"VEC2","name":"accessorUVs"},{"bufferView":0,"byteOffset":9528,"componentType":5123,"count":612,"type":"SCALAR","name":"accessorIndices"},{"bufferView":1,"byteOffset":114336,"componentType":5126,"count":612,"max":[8.11095,0.393831253,7.90429974],"min":[-8.110948,-0.249502182,-7.9043026],"type":"VEC3","name":"accessorPositions"},{"bufferView":1,"byteOffset":121680,"componentType":5126,"count":612,"type":"VEC3","name":"accessorNormals"},{"bufferView":2,"byteOffset":14016,"componentType":5126,"count":612,"type":"VEC2","name":"accessorUVs"},{"bufferView":0,"byteOffset":10752,"componentType":5123,"count":11412,"type":"SCALAR","name":"accessorIndices"},{"bufferView":1,"byteOffset":129024,"componentType":5126,"count":11412,"max":[7.80785751,0.3937006,7.68708134],"min":[-7.89281273,-0.393701553,-8.001066],"type":"VEC3","name":"accessorPositions"},{"bufferView":1,"byteOffset":265968,"componentType":5126,"count":11412,"type":"VEC3","name":"accessorNormals"},{"bufferView":0,"byteOffset":33576,"componentType":5123,"count":23340,"type":"SCALAR","name":"accessorIndices"},{"bufferView":1,"byteOffset":402912,"componentType":5126,"count":23340,"max":[5.346836,16.75306,6.395853],"min":[-11.3743086,-0.3937006,-6.10729027],"type":"VEC3","name":"accessorPositions"},{"bufferView":1,"byteOffset":682992,"componentType":5126,"count":23340,"type":"VEC3","name":"accessorNormals"}],"bufferViews":[{"buffer":0,"byteLength":80256,"name":"bufferViewScalar"},{"buffer":0,"byteOffset":80256,"byteLength":963072,"byteStride":12,"name":"bufferViewFloatVec3"},{"buffer":0,"byteOffset":1043328,"byteLength":18912,"byteStride":8,"name":"bufferViewFloatVec2"}],"buffers":[{"uri":"chaise.bin","byteLength":1062240}],"materials":[{"pbrMetallicRoughness":{"baseColorFactor":[0.612745166,0.612745166,0.612745166,1.0],"metallicFactor":0.0,"roughnessFactor":0.9},"emissiveFactor":[0.0,0.0,0.0],"alphaMode":"OPAQUE","name":"01 - Default"}]}