{"asset":{"version":"2.0","generator":"babylon.js glTF exporter for 3ds max 2017 v1.3.33"},"scene":0,"scenes":[{"nodes":[0,1,2],"extensions":{}}],"nodes":[{"mesh":0,"translation":[0.0,35.57728,1.587267],"rotation":[0.7071068,0.0,0.0,0.7071067],"scale":[1.0,1.0,1.0],"name":"ChesterField"},{"mesh":1,"translation":[0.0,0.0,0.0],"rotation":[0.0,0.0,0.0,1.0],"scale":[1.0,1.0,1.0],"name":"Porte"},{"translation":[0.0,0.0,0.0],"rotation":[0.0,0.0,0.0,1.0],"scale":[1.0,1.0,1.0],"name":"Default light"}],"meshes":[{"primitives":[{"attributes":{"POSITION":1,"NORMAL":2,"TEXCOORD_0":3},"indices":0,"mode":4,"material":0}],"name":"ChesterField"},{"primitives":[{"attributes":{"POSITION":5,"NORMAL":6,"TEXCOORD_0":7},"indices":4,"mode":4,"material":0}],"name":"Porte"}],"accessors":[{"bufferView":0,"componentType":5125,"count":167616,"type":"SCALAR","name":"accessorIndices"},{"bufferView":1,"componentType":5126,"count":167616,"max":[17.0140572,1.902225,32.8427048],"min":[-17.0140533,-1.10341156,-48.59075],"type":"VEC3","name":"accessorPositions"},{"bufferView":1,"byteOffset":2011392,"componentType":5126,"count":167616,"type":"VEC3","name":"accessorNormals"},{"bufferView":2,"componentType":5126,"count":167616,"type":"VEC2","name":"accessorUVs"},{"bufferView":0,"byteOffset":670464,"componentType":5123,"count":174,"type":"SCALAR","name":"accessorIndices"},{"bufferView":1,"byteOffset":4022784,"componentType":5126,"count":174,"max":[19.1522961,86.6141739,0.787402153],"min":[-19.1522961,0.0,-0.7874021],"type":"VEC3","name":"accessorPositions"},{"bufferView":1,"byteOffset":4024872,"componentType":5126,"count":174,"type":"VEC3","name":"accessorNormals"},{"bufferView":2,"byteOffset":1340928,"componentType":5126,"count":174,"type":"VEC2","name":"accessorUVs"}],"bufferViews":[{"buffer":0,"byteLength":670812,"name":"bufferViewScalar"},{"buffer":0,"byteOffset":670812,"byteLength":4026960,"byteStride":12,"name":"bufferViewFloatVec3"},{"buffer":0,"byteOffset":4697772,"byteLength":1342320,"byteStride":8,"name":"bufferViewFloatVec2"}],"buffers":[{"uri":"porte.bin","byteLength":6040092}],"materials":[{"pbrMetallicRoughness":{"baseColorFactor":[0.6125001,0.6125001,0.6125001,1.0],"metallicFactor":0.0,"roughnessFactor":0.9},"emissiveFactor":[0.0,0.0,0.0],"alphaMode":"OPAQUE","name":"03 - Default"}]}