{"asset":{"version":"2.0","generator":"babylon.js glTF exporter for 3ds max 2017 v1.3.33"},"scene":0,"scenes":[{"nodes":[0,1],"extensions":{}}],"nodes":[{"mesh":0,"translation":[-9.578999,3.58107543,-7.255317],"rotation":[0.5,-0.5,0.50000006,0.49999994],"scale":[1.0,1.0,1.0],"name":"1Chaise"},{"translation":[0.0,0.0,0.0],"rotation":[0.0,0.0,0.0,1.0],"scale":[1.0,1.0,1.0],"name":"Default light"}],"meshes":[{"primitives":[{"attributes":{"POSITION":1,"TANGENT":2,"NORMAL":3,"TEXCOORD_0":4},"indices":0,"mode":4,"material":0}],"name":"1Chaise"}],"accessors":[{"bufferView":0,"componentType":5125,"count":80112,"type":"SCALAR","name":"accessorIndices"},{"bufferView":1,"componentType":5126,"count":80112,"max":[16.8431625,1.06764793,3.60087943],"min":[-2.91443539,-19.6383247,-14.9011364],"type":"VEC3","name":"accessorPositions"},{"bufferView":2,"componentType":5126,"count":80112,"type":"VEC4","name":"accessorTangents"},{"bufferView":1,"byteOffset":961344,"componentType":5126,"count":80112,"type":"VEC3","name":"accessorNormals"},{"bufferView":3,"componentType":5126,"count":80112,"type":"VEC2","name":"accessorUVs"}],"bufferViews":[{"buffer":0,"byteLength":320448,"name":"bufferViewScalar"},{"buffer":0,"byteOffset":320448,"byteLength":1922688,"byteStride":12,"name":"bufferViewFloatVec3"},{"buffer":0,"byteOffset":2243136,"byteLength":1281792,"byteStride":16,"name":"bufferViewFloatVec4"},{"buffer":0,"byteOffset":3524928,"byteLength":640896,"byteStride":8,"name":"bufferViewFloatVec2"}],"buffers":[{"uri":"chaise.bin","byteLength":4165824}],"materials":[{"pbrMetallicRoughness":{"baseColorFactor":[0.612745166,0.612745166,0.612745166,1.0],"metallicFactor":0.0,"roughnessFactor":0.9},"emissiveFactor":[0.0,0.0,0.0],"alphaMode":"OPAQUE","name":"09 - Default"}]}