{"asset":{"version":"2.0","generator":"babylon.js glTF exporter for 3ds max 2017 v1.3.33"},"scene":0,"scenes":[{"nodes":[0,2],"extensions":{}}],"nodes":[{"children":[1],"translation":[0.132461548,15.2584581,-29.7930222],"rotation":[0.0,0.0,0.0,1.0],"scale":[1.0,1.0,1.0],"name":"Group001"},{"mesh":0,"translation":[-28.9143429,-0.3167534,27.4953766],"rotation":[0.5,-0.5,0.50000006,0.49999994],"scale":[1.0,1.0,1.0],"name":"Plane001"},{"translation":[0.0,0.0,0.0],"rotation":[0.0,0.0,0.0,1.0],"scale":[1.0,1.0,1.0],"name":"Default light"}],"meshes":[{"primitives":[{"attributes":{"POSITION":1,"NORMAL":2,"TEXCOORD_0":3},"indices":0,"mode":4,"material":0}],"name":"Plane001"}],"accessors":[{"bufferView":0,"componentType":5125,"count":137496,"type":"SCALAR","name":"accessorIndices"},{"bufferView":1,"componentType":5126,"count":137496,"max":[7.115813,9.909466,14.9417162],"min":[-62.1065636,-67.73816,-15.5752144],"type":"VEC3","name":"accessorPositions"},{"bufferView":1,"byteOffset":1649952,"componentType":5126,"count":137496,"type":"VEC3","name":"accessorNormals"},{"bufferView":2,"componentType":5126,"count":137496,"type":"VEC2","name":"accessorUVs"}],"bufferViews":[{"buffer":0,"byteLength":549984,"name":"bufferViewScalar"},{"buffer":0,"byteOffset":549984,"byteLength":3299904,"byteStride":12,"name":"bufferViewFloatVec3"},{"buffer":0,"byteOffset":3849888,"byteLength":1099968,"byteStride":8,"name":"bufferViewFloatVec2"}],"buffers":[{"uri":"bureau.bin","byteLength":4949856}],"materials":[{"pbrMetallicRoughness":{"baseColorFactor":[0.612745166,0.612745166,0.612745166,1.0],"metallicFactor":0.0,"roughnessFactor":0.9},"emissiveFactor":[0.0,0.0,0.0],"alphaMode":"OPAQUE","name":"21 - Default"}]}