{"asset":{"version":"2.0","generator":"babylon.js glTF exporter for 3ds max 2017 v1.3.33"},"scene":0,"scenes":[{"nodes":[0,1],"extensions":{}}],"nodes":[{"mesh":0,"translation":[0.0,0.0,35.0],"rotation":[0.0,0.0,0.0,1.0],"scale":[1.0,1.0,1.0],"name":"Plane001"},{"translation":[0.0,0.0,0.0],"rotation":[0.0,0.0,0.0,1.0],"scale":[1.0,1.0,1.0],"name":"Default light"}],"meshes":[{"primitives":[{"attributes":{"POSITION":1,"NORMAL":2,"TEXCOORD_0":3},"indices":0}],"name":"Plane001"}],"accessors":[{"bufferView":0,"componentType":5123,"count":12000,"type":"SCALAR","name":"accessorIndices"},{"bufferView":1,"componentType":5126,"count":12000,"max":[113.84919,66.9291458,24.2511826],"min":[-113.84919,-6.66565825E-09,-95.0000153],"type":"VEC3","name":"accessorPositions"},{"bufferView":1,"byteOffset":144000,"componentType":5126,"count":12000,"type":"VEC3","name":"accessorNormals"},{"bufferView":2,"componentType":5126,"count":12000,"type":"VEC2","name":"accessorUVs"}],"bufferViews":[{"buffer":0,"byteLength":24000,"name":"bufferViewScalar"},{"buffer":0,"byteOffset":24000,"byteLength":288000,"byteStride":12,"name":"bufferViewFloatVec3"},{"buffer":0,"byteOffset":312000,"byteLength":96000,"byteStride":8,"name":"bufferViewFloatVec2"}],"buffers":[{"uri":"escalier.bin","byteLength":408000}]}