{"asset":{"version":"2.0","generator":"babylon.js glTF exporter for 3ds max 2017 v1.3.33"},"scene":0,"scenes":[{"nodes":[0,1],"extensions":{}}],"nodes":[{"mesh":0,"translation":[0.0,0.0,0.0],"rotation":[0.0,0.0,0.0,1.0],"scale":[1.0,1.0,1.0],"name":"NGon001"},{"translation":[0.0,0.0,0.0],"rotation":[0.0,0.0,0.0,1.0],"scale":[1.0,1.0,1.0],"name":"Default light"}],"meshes":[{"primitives":[{"attributes":{"POSITION":1,"NORMAL":2},"indices":0,"mode":4,"material":0}],"name":"NGon001"}],"accessors":[{"bufferView":0,"componentType":5123,"count":17844,"type":"SCALAR","name":"accessorIndices"},{"bufferView":1,"componentType":5126,"count":17844,"max":[8.021406,34.48233,8.0214],"min":[-8.0214,-0.130498663,-8.0214],"type":"VEC3","name":"accessorPositions"},{"bufferView":1,"byteOffset":214128,"componentType":5126,"count":17844,"type":"VEC3","name":"accessorNormals"}],"bufferViews":[{"buffer":0,"byteLength":35688,"name":"bufferViewScalar"},{"buffer":0,"byteOffset":35688,"byteLength":428256,"byteStride":12,"name":"bufferViewFloatVec3"}],"buffers":[{"uri":"trophy.bin","byteLength":463944}],"materials":[{"pbrMetallicRoughness":{"baseColorFactor":[0.92549026,0.545098066,0.0,1.0],"metallicFactor":1.0,"roughnessFactor":0.4},"emissiveFactor":[0.0,0.0,0.0],"alphaMode":"OPAQUE","name":"01 - Default"}]}